<svg width="30" height="28" viewBox="0 0 30 28" fill="none" xmlns="http://www.w3.org/2000/svg">
<path d="M0.5 9.33545V14.2599C2.34951 14.2588 4.18113 14.5894 5.89005 15.233C7.59896 15.8766 9.15163 16.8204 10.4592 18.0106C11.7665 19.2002 12.8032 20.6127 13.5101 22.1672C14.217 23.7217 14.5803 25.3877 14.5791 27.0699H19.9876C19.9827 22.3684 17.9281 17.8607 14.2747 14.5359C10.6212 11.2111 5.66729 9.34082 0.5 9.33545H0.5Z" fill="#11142D"/>
<path d="M27.5479 0.470215H18.9766C23.3126 2.97036 26.9867 6.31277 29.7351 10.2576V2.45891C29.7347 1.93135 29.5041 1.42552 29.094 1.05261C28.6838 0.679693 28.1277 0.470215 27.5479 0.470215V0.470215Z" fill="#11142D"/>
<path d="M5.88544 0.470215H0.5V4.90401C6.95926 4.91013 13.1521 7.24743 17.7195 11.4031C22.287 15.5587 24.856 21.1932 24.863 27.0702H29.7352V22.1702C28.6336 16.7848 25.7654 11.8291 21.5082 7.95566C17.251 4.0822 11.8044 1.47253 5.88544 0.470215V0.470215Z" fill="#11142D"/>
</svg>
